<svg xmlns="http://www.w3.org/2000/svg" viewBox="0 0 1400 900" role="img" aria-label="Reck Connect architecture">
  <defs>
    <radialGradient id="bg" cx="50%" cy="40%" r="80%">
      <stop offset="0%" stop-color="#1c1b19"/>
      <stop offset="100%" stop-color="#141413"/>
    </radialGradient>
    <marker id="arrowhead" viewBox="0 0 10 10" refX="9" refY="5" markerWidth="7" markerHeight="7" orient="auto-start-reverse">
      <path d="M 0 0 L 10 5 L 0 10 z" fill="#e8875c"/>
    </marker>
    <marker id="arrowhead-mid" viewBox="0 0 10 10" refX="9" refY="5" markerWidth="6" markerHeight="6" orient="auto-start-reverse">
      <path d="M 0 0 L 10 5 L 0 10 z" fill="#8a877d"/>
    </marker>
  </defs>

  <style>
    .h1   { font-family:'Playfair Display', Georgia, serif; font-weight:700; }
    .h2   { font-family:'Playfair Display', Georgia, serif; font-weight:700; }
    .body { font-family:'Lora', Georgia, serif; }
    .it   { font-family:'Lora', Georgia, serif; font-style:italic; }
    .mono { font-family:'JetBrains Mono', ui-monospace, monospace; }
  </style>

  <rect width="1400" height="900" fill="url(#bg)"/>

  <line x1="60" y1="74" x2="1340" y2="74" stroke="#3a3937"/>
  <text x="60"   y="58" class="mono" font-size="11" letter-spacing="3" fill="#8a877d">FIG. 1 — SYSTEM TOPOLOGY</text>
  <text x="1340" y="58" text-anchor="end" class="mono" font-size="11" letter-spacing="3" fill="#8a877d">RECK CONNECT V2</text>
  <text x="700"  y="120" text-anchor="middle" class="h1" font-size="38" fill="#f5f2ea">Station / Satellite, at a glance</text>
  <text x="700"  y="152" text-anchor="middle" class="it" font-size="17" fill="#b5b3a9">The station owns the processes. The satellite is a thin display.</text>

  <!-- SATELLITE -->
  <g>
    <rect x="60" y="200" width="560" height="600" rx="14" fill="#201f1d" stroke="#3a3937"/>
    <rect x="60" y="200" width="560" height="42" rx="14" fill="#0c0c0b"/>
    <rect x="60" y="228" width="560" height="14" fill="#0c0c0b"/>
    <text x="86"  y="228" class="mono" font-size="11" letter-spacing="3" fill="#e8875c">SATELLITE</text>
    <text x="594" y="228" text-anchor="end" class="mono" font-size="11" letter-spacing="2" fill="#8a877d">your laptop</text>

    <text x="86" y="282" class="h2" font-size="22" fill="#f5f2ea">Reck Satellite</text>
    <text x="86" y="304" class="it" font-size="14" fill="#b5b3a9">Electron desktop app</text>

    <rect x="86" y="332" width="508" height="86" rx="8" fill="#1c1b19" stroke="#3a3937"/>
    <text x="100" y="358" class="mono" font-size="11" letter-spacing="2" fill="#8a877d">MAIN PROCESS</text>
    <text x="100" y="386" class="body" font-size="14" fill="#f5f2ea">Spawns daemon child in Local mode</text>
    <text x="100" y="406" class="body" font-size="14" fill="#f5f2ea">IPC bridge · window mgmt · settings</text>

    <rect x="86" y="430" width="508" height="338" rx="8" fill="#1c1b19" stroke="#3a3937"/>
    <text x="100" y="456" class="mono" font-size="11" letter-spacing="2" fill="#8a877d">RENDERER PROCESS</text>

    <rect x="100" y="472" width="480" height="60" rx="6" fill="#201f1d" stroke="#2a2927"/>
    <text x="114" y="494" class="body" font-weight="700" font-size="14" fill="#f5f2ea">shared-renderer</text>
    <text x="114" y="514" class="mono" font-size="12" fill="#b5b3a9">typed HTTP client · PtyWS · xterm.js</text>

    <rect x="100" y="544" width="232" height="210" rx="6" fill="#201f1d" stroke="#2a2927"/>
    <text x="114" y="566" class="body" font-weight="700" font-size="14" fill="#f5f2ea">Project rail</text>
    <text x="114" y="586" class="mono" font-size="11" fill="#7a9c6d">●</text><text x="128" y="586" class="mono" font-size="11" fill="#b5b3a9">reck-connect</text>
    <text x="114" y="606" class="mono" font-size="11" fill="#c9982e">●</text><text x="128" y="606" class="mono" font-size="11" fill="#b5b3a9">my-app</text>
    <text x="114" y="626" class="mono" font-size="11" fill="#8a877d">●</text><text x="128" y="626" class="mono" font-size="11" fill="#b5b3a9">scratch</text>
    <line x1="114" y1="644" x2="318" y2="644" stroke="#2a2927"/>
    <text x="114" y="664" class="it" font-size="12" fill="#b5b3a9">Stoplight per pane</text>
    <text x="114" y="690" class="mono" font-size="10" fill="#8a877d">gray · orange · green · red</text>

    <rect x="348" y="544" width="232" height="210" rx="6" fill="#0c0c0b" stroke="#2a2927"/>
    <text x="362" y="566" class="mono" font-size="11" letter-spacing="2" fill="#e8875c">PANE — xterm.js</text>
    <text x="362" y="592" class="mono" font-size="11" fill="#b5b3a9">$ claude</text>
    <text x="362" y="612" class="mono" font-size="11" fill="#7a9c6d">● ready</text>
    <text x="362" y="640" class="mono" font-size="11" fill="#b5b3a9">› feat(api): rotate token</text>
    <text x="362" y="660" class="mono" font-size="11" fill="#b5b3a9">› fix(rail): dim per-pane…</text>
    <text x="362" y="688" class="mono" font-size="11" fill="#e8875c">▍</text>
  </g>

  <!-- STATION -->
  <g>
    <rect x="780" y="200" width="560" height="600" rx="14" fill="#201f1d" stroke="#3a3937"/>
    <rect x="780" y="200" width="560" height="42" rx="14" fill="#0c0c0b"/>
    <rect x="780" y="228" width="560" height="14" fill="#0c0c0b"/>
    <text x="806"  y="228" class="mono" font-size="11" letter-spacing="3" fill="#e8875c">STATION</text>
    <text x="1314" y="228" text-anchor="end" class="mono" font-size="11" letter-spacing="2" fill="#8a877d">Mac Studio · macOS 14+</text>

    <text x="806" y="282" class="h2" font-size="22" fill="#f5f2ea">reck-stationd</text>
    <text x="806" y="304" class="it" font-size="14" fill="#b5b3a9">Go daemon · HTTP + WS on :7315</text>

    <rect x="806" y="332" width="508" height="86" rx="8" fill="#1c1b19" stroke="#3a3937"/>
    <text x="820" y="358" class="mono" font-size="11" letter-spacing="2" fill="#8a877d">INTERNAL</text>
    <text x="820" y="382" class="mono" font-size="12" fill="#f5f2ea">pty.Manager · sessions.Store · stoplight.Runner</text>
    <text x="820" y="402" class="mono" font-size="12" fill="#f5f2ea">hooks · supervisor · agent (claude/codex/shell)</text>

    <text x="806" y="446" class="mono" font-size="11" letter-spacing="2" fill="#8a877d">PROJECTS &amp; PANES</text>

    <rect x="806" y="460" width="508" height="146" rx="8" fill="#1c1b19" stroke="#3a3937"/>
    <text x="820" y="484" class="body" font-weight="700" font-size="14" fill="#f5f2ea">project: reck-connect</text>
    <text x="820" y="504" class="mono" font-size="11" fill="#b5b3a9">cwd /Users/reck-connect/projects/reck-connect</text>
    <rect x="820" y="516" width="480" height="34" rx="5" fill="#201f1d" stroke="#2a2927"/>
    <circle cx="836" cy="533" r="5" fill="#7a9c6d"/>
    <text x="852" y="538" class="mono" font-size="12" fill="#f5f2ea">p_abc123</text>
    <text x="958" y="538" class="mono" font-size="12" fill="#b5b3a9">PTY → /usr/local/bin/claude</text>
    <rect x="820" y="556" width="480" height="34" rx="5" fill="#201f1d" stroke="#2a2927"/>
    <circle cx="836" cy="573" r="5" fill="#8a877d"/>
    <text x="852" y="578" class="mono" font-size="12" fill="#f5f2ea">p_def456</text>
    <text x="958" y="578" class="mono" font-size="12" fill="#b5b3a9">PTY → /bin/zsh -l</text>

    <rect x="806" y="618" width="508" height="106" rx="8" fill="#1c1b19" stroke="#3a3937"/>
    <text x="820" y="642" class="body" font-weight="700" font-size="14" fill="#f5f2ea">project: my-app</text>
    <text x="820" y="662" class="mono" font-size="11" fill="#b5b3a9">default_pane = codex</text>
    <rect x="820" y="676" width="480" height="34" rx="5" fill="#201f1d" stroke="#2a2927"/>
    <circle cx="836" cy="693" r="5" fill="#c9982e"/>
    <text x="852" y="698" class="mono" font-size="12" fill="#f5f2ea">p_ghi789</text>
    <text x="958" y="698" class="mono" font-size="12" fill="#b5b3a9">PTY → codex</text>

    <rect x="806" y="736" width="508" height="44" rx="8" fill="#0c0c0b" stroke="#2a2927"/>
    <text x="820" y="755" class="mono" font-size="11" letter-spacing="2" fill="#e8875c">~/.claude/settings.json</text>
    <text x="820" y="772" class="mono" font-size="11" fill="#b5b3a9">lifecycle hook shims (auto-installed, idempotent)</text>
  </g>

  <!-- CONNECTIONS -->
  <g>
    <line x1="620" y1="375" x2="780" y2="375" stroke="#e8875c" stroke-width="2.5" marker-end="url(#arrowhead)" marker-start="url(#arrowhead)"/>
    <text x="700" y="362" text-anchor="middle" class="mono" font-size="11" letter-spacing="2" fill="#b5b3a9">HTTP · REST</text>
    <text x="700" y="394" text-anchor="middle" class="it" font-size="11" fill="#8a877d">/projects /panes /health</text>

    <line x1="620" y1="540" x2="780" y2="540" stroke="#e8875c" stroke-width="2.5" marker-end="url(#arrowhead)" marker-start="url(#arrowhead)"/>
    <text x="700" y="527" text-anchor="middle" class="mono" font-size="11" letter-spacing="2" fill="#b5b3a9">WS · PTY STREAM</text>
    <text x="700" y="559" text-anchor="middle" class="it" font-size="11" fill="#8a877d">input · output · resize · stoplight</text>

    <path d="M 1060 778 C 1060 820, 700 820, 540 760" fill="none" stroke="#8a877d" stroke-width="1.4" stroke-dasharray="4 4" marker-end="url(#arrowhead-mid)"/>
    <text x="800" y="838" text-anchor="middle" class="mono" font-size="11" letter-spacing="2" fill="#8a877d">HOOK POST-BACK · loopback-exempt · /panes/:id/agent-event</text>

    <text x="700" y="700" text-anchor="middle" class="mono" font-size="10" letter-spacing="3" fill="#8a877d">— TAILSCALE (station) · LOOPBACK (local) —</text>
  </g>

  <line x1="60" y1="858" x2="1340" y2="858" stroke="#3a3937"/>
  <text x="60" y="884" class="mono" font-size="10" letter-spacing="2" fill="#8a877d">BEARER AUTH · DAEMON_TOKEN · LAUNCHD-MANAGED</text>
  <text x="1340" y="884" text-anchor="end" class="it" font-size="11" fill="#b5b3a9">If the satellite quits, the daemon — and every pane — keeps going.</text>
</svg>
